# xmcd
#
# Track frame offsets: 
#        150
#        21569
#        47458
#        70443
#        87322
#        101210
#        116320
#        136475
#        152875
#        181736
#        197581
#        213776
#
# Disc length: 3157 seconds
#
# Revision: 0
# Processed by: cddbd v1.5.2PL0 Copyright (c) Steve Scherf et al.
# Submitted via: ExactAudioCopyFreeDBPlugin 1.0
#
DISCID=a40c530c
DTITLE=Sofia Karlsson - Levande
DYEAR=2011
DGENRE=Swedish Folk
TTITLE0=Du Liv
TTITLE1=Hemlängtan
TTITLE2=From Here To Here (Grey Skies)
TTITLE3=Grimasch Om Morgonen
TTITLE4=Milrök
TTITLE5=Du Var Där
TTITLE6=Andra Sidan
TTITLE7=Spelmannen
TTITLE8=Olles Förbund Med Makterna
TTITLE9=Visa Från Kåkbrinken
TTITLE10=Jag Har Drömt
TTITLE11=Till Havs
EXTD=
EXTT0=
EXTT1=
EXTT2=
EXTT3=
EXTT4=
EXTT5=
EXTT6=
EXTT7=
EXTT8=
EXTT9=
EXTT10=
EXTT11=
PLAYORDER=
